<svg width="136" height="32" viewBox="0 0 136 32" fill="none" xmlns="http://www.w3.org/2000/svg">
<path fill-rule="evenodd" clip-rule="evenodd" d="M108.237 15.0495C109.413 15.101 110.562 15.4227 111.6 15.9907L111.762 14.0717C110.737 13.6592 109.643 13.459 108.542 13.4827C104.169 13.4827 100.966 16.3012 100.966 20.5505C100.966 24.9372 103.983 27.7462 108.521 27.7462C109.628 27.7782 110.732 27.611 111.782 27.2522L111.657 25.3355C110.548 25.8419 109.354 26.1253 108.139 26.17C107.424 26.1635 106.717 26.0132 106.059 25.7277C105.401 25.4423 104.805 25.0272 104.303 24.5063C103.802 23.9853 103.407 23.3687 103.139 22.6916C102.871 22.0145 102.737 21.2902 102.743 20.56C102.75 19.8298 102.897 19.1081 103.176 18.436C103.456 17.7639 103.862 17.1546 104.372 16.6429C104.882 16.1312 105.486 15.7271 106.149 15.4537C106.812 15.1803 107.522 15.0429 108.237 15.0495ZM44.3316 13.6087V19.3648H36.6456V13.6087H35.1006V27.6311H36.6405V20.7175H44.3316V27.6311H45.8694V13.608L44.3316 13.6087ZM114.998 13.6121H113.341V27.6308H114.998V13.6121ZM73.227 17.0853L69.176 27.6264L67.6655 27.6271L63.6719 17.086H65.3936L68.4662 25.6183L71.5096 17.0853H73.227ZM55.9839 20.6407C55.9832 19.8138 55.7193 19.0095 55.2319 18.3491C54.7446 17.6887 54.0601 17.2081 53.2818 16.9797C51.4856 16.6122 49.6197 16.9515 48.0581 17.9296V19.6703L48.1089 19.7331C48.7838 19.1882 49.563 18.7936 50.3962 18.5746C51.2294 18.3556 52.0984 18.3171 52.947 18.4616C53.4097 18.6114 53.8115 18.912 54.0908 19.3174C54.3701 19.7227 54.5115 20.2105 54.4933 20.7058V21.1362H52.386C51.2048 21.0778 50.0277 21.317 48.9583 21.8326C48.4058 22.1125 47.9378 22.5399 47.6038 23.0694C47.2699 23.5989 47.0824 24.2109 47.0613 24.8403C47.0613 24.8403 46.9017 27.4265 49.9558 27.7918C51.0667 27.9004 52.1864 27.7197 53.2103 27.2664C53.7022 26.949 54.1363 26.5467 54.4933 26.0775V27.6238H55.9853V20.6561L55.9839 20.6407ZM53.9088 25.0048C53.6116 25.5022 53.1886 25.9086 52.6843 26.1813C51.9545 26.4633 51.1718 26.5732 50.3945 26.5028C50.1633 26.5055 49.9338 26.4611 49.7196 26.372C49.5055 26.283 49.3109 26.1511 49.1473 25.9842C48.9837 25.8173 48.8545 25.6187 48.7671 25.4C48.6797 25.1814 48.6359 24.9471 48.6384 24.711C48.6501 24.3264 48.7637 23.9523 48.9669 23.6283C49.1702 23.3044 49.4555 23.0426 49.7927 22.871C50.5469 22.5506 51.362 22.4073 52.1777 22.4515H54.4912V23.5433C54.3872 24.0627 54.1904 24.5581 53.9108 25.0048H53.9088ZM61.976 17.0574C62.4171 17.0418 62.8586 17.0732 63.2933 17.1509L63.3406 18.7133C62.9827 18.6046 62.6094 18.5584 62.2365 18.5766C60.5949 18.6307 59.2353 20.2778 59.0922 22.4036V27.6269H57.6146V17.148H59.0922V19.048L59.2117 18.8404C59.4847 18.3266 59.8821 17.8929 60.3661 17.5807C60.8501 17.2686 61.4044 17.0884 61.976 17.0574ZM81.7592 26.1049C80.8486 27.0793 79.612 27.6677 78.2957 27.7528C74.9217 27.7528 73.0054 25.5101 73.0054 22.02C72.9729 21.3569 73.0724 20.6938 73.298 20.071C73.5235 19.4482 73.8703 18.8786 74.3175 18.3966C74.7647 17.9146 75.303 17.5301 75.8998 17.2666C76.4966 17.003 77.1396 16.8658 77.7898 16.8631C80.7137 16.8631 82.4575 18.9823 82.3838 22.6967H74.559C74.5543 23.18 74.6454 23.6593 74.8269 24.1056C75.0084 24.552 75.2765 24.9562 75.6151 25.2939C75.9537 25.6316 76.3557 25.8958 76.797 26.0706C77.2382 26.2454 77.7096 26.3272 78.1826 26.311C78.7831 26.2565 79.3633 26.0618 79.8785 25.742C80.3936 25.4222 80.8299 24.9858 81.1537 24.4666L81.7592 26.1049ZM80.9333 21.2988C80.8733 20.4951 80.5263 19.7419 79.9582 19.1823C79.3902 18.6227 78.6407 18.2957 77.852 18.2632C77.0465 18.2776 76.2746 18.5955 75.6847 19.1558C75.0948 19.7162 74.7285 20.4794 74.6563 21.2988H80.9333ZM86.8375 26.321C85.5759 26.2951 84.3421 25.9383 83.2546 25.2848L83.1266 26.9319C84.1108 27.4276 85.1864 27.7054 86.283 27.7474C88.7882 27.7474 90.4534 27.1292 90.4534 24.5496C90.4534 22.732 88.7034 22.0579 87.1376 21.4547C85.8699 20.9663 84.723 20.5245 84.723 19.5601C84.723 18.6868 85.7048 18.2769 86.9255 18.2769C87.9737 18.3323 88.9926 18.6492 89.893 19.1998V17.6031C88.9614 17.2196 87.9764 16.9885 86.9742 16.9184C84.4632 16.9184 83.3097 17.8596 83.3097 19.8049C83.3097 21.4552 85.0552 22.2039 86.6125 22.8718C87.8666 23.4097 88.9986 23.8953 88.9986 24.7572C88.9986 25.8964 87.9295 26.3305 86.8375 26.321ZM96.2199 26.129C95.3419 26.129 94.4697 26.118 94.4697 24.4819V18.3261H97.4114V16.9866H94.4697V14.0337L92.9576 14.5181V16.9866H90.7608V18.3261H92.9576V24.951H92.9691C93.06 26.851 94.021 27.7133 95.8966 27.7133C96.4487 27.6904 96.9951 27.5909 97.5209 27.4173V25.76C97.1319 26.0103 96.6796 26.1386 96.2199 26.129ZM125.07 27.6354H123.639V25.8085H123.612C123.09 26.9887 121.527 27.7041 120.195 27.7041C117.717 27.7041 116.612 26.0365 116.612 23.2465V17.0746H118.17V22.45C118.17 24.8724 118.7 26.2499 120.366 26.3507C122.535 26.3507 123.515 24.4055 123.515 21.8815V17.0746H125.075L125.07 27.6354ZM129.698 17.2872C130.308 16.9726 130.99 16.8288 131.672 16.8705C134.135 16.8705 136.001 19.3332 136 22.1268C136 24.9745 134.762 27.7441 131.695 27.7441C131.024 27.774 130.355 27.6341 129.75 27.3366C129.144 27.0392 128.619 26.5935 128.223 26.0392H128.197V27.6345H126.639V13.6121H128.197V18.6616C128.569 18.076 129.087 17.6018 129.698 17.2872ZM128.257 22.4067C128.257 24.1488 129.201 26.2797 131.495 26.2797C133.471 26.2797 134.582 23.9807 134.538 22.3475C134.582 20.4753 133.403 18.4957 131.518 18.4957C129.314 18.4957 128.257 20.4753 128.257 22.4067Z" fill="white"/>
<path fill-rule="evenodd" clip-rule="evenodd" d="M40.8616 10.3943C41.0613 10.611 41.3024 10.7837 41.5699 10.9017C41.8375 11.0198 42.1258 11.0807 42.4172 11.0807C42.7087 11.0807 42.997 11.0198 43.2645 10.9017C43.5321 10.7837 43.7731 10.611 43.9729 10.3943C44.5239 9.79031 44.8302 8.99551 44.8302 8.17003C44.8302 7.34455 44.5239 6.54976 43.9729 5.94578C43.7732 5.72969 43.5324 5.55753 43.2652 5.43987C42.998 5.3222 42.7101 5.26151 42.4192 5.26151C42.1282 5.26151 41.8403 5.3222 41.5731 5.43987C41.306 5.55753 41.0652 5.72969 40.8655 5.94578C40.3142 6.54965 40.0077 7.34449 40.0077 8.17003C40.0077 8.99558 40.3142 9.79042 40.8655 10.3943H40.8616ZM40.3061 10.9561C39.6082 10.203 39.2195 9.20536 39.2202 8.1685C39.2209 7.13164 39.611 6.13453 40.31 5.38253C40.5818 5.09061 40.909 4.85817 41.2715 4.69935C41.634 4.54052 42.0244 4.45862 42.4189 4.45862C42.8134 4.45862 43.2037 4.54052 43.5663 4.69935C43.9288 4.85817 44.2559 5.09061 44.5278 5.38253C45.224 6.13623 45.6118 7.13317 45.6118 8.16929C45.6118 9.20541 45.224 10.2023 44.5278 10.9561C44.2551 11.2472 43.9276 11.4789 43.5649 11.6372C43.2021 11.7955 42.8117 11.8771 42.4172 11.8771C42.0228 11.8771 41.6324 11.7955 41.2696 11.6372C40.9069 11.4789 40.5793 11.2472 40.3066 10.9561H40.3061ZM34.1899 4.67872V5.36841H36.5336V11.6956H37.3318V5.36841H39.5492V4.67872H34.1899ZM62.7921 4.67711H63.599V9.2471C63.556 9.96382 63.2468 10.6368 62.7345 11.1286C62.2222 11.6204 61.5454 11.8941 60.8422 11.8938C60.1345 11.9022 59.4513 11.6293 58.937 11.1327C58.4227 10.6361 58.1177 9.95479 58.0863 9.23272V4.67562H58.8836V9.23322C58.9102 9.7437 59.1273 10.2244 59.4903 10.5764C59.8534 10.9284 60.3347 11.1249 60.8353 11.1256C61.3359 11.1263 61.8177 10.9311 62.1817 10.5801C62.5457 10.2291 62.7641 9.74908 62.7921 9.23867V4.67711ZM56.8014 4.67872H56.785L54.6001 7.92189H54.484L52.2991 4.67872H52.2826H51.4237L54.1305 8.69835L54.1451 8.71868V11.6936H54.9331V8.71868L54.9457 8.69835L57.6516 4.67872H56.8014ZM47.7871 7.9561L51.933 11.6971L50.8231 11.6981L47.2598 8.42911L47.1316 8.4896V11.6956H46.3324V4.67872H47.1316V7.33434L47.2578 7.39037L50.3341 4.68269H51.3892L47.7871 7.83512V7.9561Z" fill="white"/>
<path fill-rule="evenodd" clip-rule="evenodd" d="M12.6981 17.9932V17.9924L12.6979 17.9923L12.6981 17.9923V17.9922C10.717 17.6592 8.82034 16.9277 7.11834 15.8401C5.41634 14.7526 3.94284 13.3306 2.78338 11.6567C1.62392 9.98283 0.801637 8.09044 0.364196 6.08939C-0.0732454 4.08835 -0.117093 2.0185 0.235192 0C3.84943 1.13956 7.01115 3.43142 9.25698 6.53966C11.5028 9.6479 12.7146 13.4091 12.7147 17.2718C12.7147 17.5132 12.7066 17.7539 12.6981 17.9923C14.3407 18.2712 16.017 18.2712 17.6596 17.9923C17.6848 18.6894 17.7503 19.3843 17.8557 20.0736C16.1058 19.5696 14.2534 19.5696 12.5034 20.0736C12.6073 19.3847 12.6728 18.6904 12.6996 17.994L12.6981 17.9924L12.6981 17.9932ZM17.6578 17.9925C17.6477 17.7532 17.6392 17.5128 17.6392 17.2715C17.6391 13.4098 18.85 9.6495 21.0945 6.54153C23.339 3.43357 26.4991 1.14124 30.1118 0.000341797C30.4642 2.01819 30.4208 4.08742 29.9839 6.08798C29.547 8.08853 28.7255 9.98058 27.5669 11.6543C26.4084 13.3281 24.9359 14.7502 23.2348 15.8383C21.5338 16.9263 19.6381 17.6585 17.6578 17.9925ZM12.5024 20.0734C10.3694 20.6701 8.48745 21.9656 7.14555 23.7608C5.80365 25.5559 5.07608 27.7514 5.07471 30.0098C5.07641 30.6779 5.14057 31.3443 5.26628 31.9999C7.1905 30.6054 8.82202 28.8318 10.0647 26.7835C11.3075 24.7352 12.1363 22.4537 12.5024 20.0734ZM20.2913 26.7798C19.0498 24.7329 18.2217 22.4532 17.8557 20.0747C20.3133 20.7594 22.4256 22.3697 23.767 24.5813C25.1084 26.7928 25.5793 29.4413 25.0849 31.9933C23.1626 30.5992 21.5328 28.8266 20.2913 26.7798Z" fill="white"/>
</svg>
